<svg version="1.1" id="layer1" xmlns="http://www.w3.org/2000/svg" x="0" y="0" viewBox="0 0 20 17.9" style="enable-background:new 0 0 20 17.9" xml:space="preserve"><style>.st0{fill:#db6000}</style><path class="st0" d="m13.5 7.3 4.6-.5c.8-.1 1.2-.6.6-1.3l-.9-.9 2.1-2.1c.1-.1.1-.3 0-.5l-2-2c-.1-.1-.3-.1-.5 0l-2.1 2.1-.9-.9c-.4-.4-.9-.3-1.1.2v.1c-.2 1.7-.3 3.3-.5 5-.2.6.2.9.7.8zM6.5 10.6l-4.6.4c-.8.1-1.2.6-.6 1.3l.9.9-2.1 2.1c-.1.1-.1.3 0 .5l2 2c.1.1.3.1.5 0l2.1-2.1.9.9c.4.4.9.3 1.1-.2v-.1c.2-1.7.3-3.3.5-5 .2-.6-.2-.8-.7-.7zM10 6.7c-1.2 0-2.2 1-2.2 2.2 0 1.2 1 2.2 2.2 2.2 1.2 0 2.2-1 2.2-2.2 0-1.2-1-2.2-2.2-2.2zM17.8 13.2l.9-.9c.6-.6.2-1.2-.6-1.3l-4.6-.5c-.5-.1-.9.2-.9.7.2 1.7.3 3.3.5 5v.1c.2.5.7.6 1.1.2l.9-.9 2.1 2.1c.1.1.3.1.5 0l2-2c.1-.1.1-.3 0-.5l-1.9-2zM6.8 1.5c-.3-.5-.7-.6-1.1-.2l-1 .9L2.6.1c-.2-.1-.4-.1-.5 0l-2 2c-.1.1-.1.3 0 .5l2.1 2.1-.9.9c-.6.6-.2 1.1.6 1.2l4.6.5c.5.1.9-.2.8-.7-.2-1.7-.3-3.3-.5-5.1 0 .1 0 0 0 0z"/></svg>