<?xml version="1.0" encoding="utf-8"?>
<!-- Generator: Adobe Illustrator 23.0.1, SVG Export Plug-In . SVG Version: 6.00 Build 0)  -->
<svg version="1.1" id="layer1" xmlns="http://www.w3.org/2000/svg" xmlns:xlink="http://www.w3.org/1999/xlink" x="0px" y="0px"
	 viewBox="0 0 20 17.9" style="enable-background:new 0 0 20 17.9;" xml:space="preserve">
<style type="text/css">
	.st0{fill:#DB6000;}
</style>
<title>arrows-center</title>
<g>
	<path class="st0" d="M13.5,7.3l4.6-0.5c0.8-0.1,1.2-0.6,0.6-1.3c-0.3-0.3-0.6-0.6-0.9-0.9l2.1-2.1c0.1-0.1,0.1-0.3,0-0.5l-2-2
		c-0.1-0.1-0.3-0.1-0.5,0l-2.1,2.1l0,0l-0.9-0.9c0,0,0,0,0,0c-0.4-0.4-0.9-0.3-1.1,0.2c0,0,0,0.1,0,0.1c-0.2,1.7-0.3,3.3-0.5,5
		C12.6,7.1,13,7.4,13.5,7.3z"/>
	<path class="st0" d="M6.5,10.6L1.9,11c-0.8,0.1-1.2,0.6-0.6,1.3c0.3,0.3,0.6,0.6,0.9,0.9l-2.1,2.1c-0.1,0.1-0.1,0.3,0,0.5l2,2
		c0.1,0.1,0.3,0.1,0.5,0l2.1-2.1l0,0l0.9,0.9l0,0c0.4,0.4,0.9,0.3,1.1-0.2c0,0,0-0.1,0-0.1c0.2-1.7,0.3-3.3,0.5-5
		C7.4,10.7,7,10.5,6.5,10.6z"/>
	<path class="st0" d="M10,6.7c-1.2,0-2.2,1-2.2,2.2c0,1.2,1,2.2,2.2,2.2c1.2,0,2.2-1,2.2-2.2C12.2,7.7,11.2,6.7,10,6.7z"/>
	<path class="st0" d="M17.8,13.2c0.3-0.3,0.6-0.6,0.9-0.9c0.6-0.6,0.2-1.2-0.6-1.3l-4.6-0.5c-0.5-0.1-0.9,0.2-0.9,0.7
		c0.2,1.7,0.3,3.3,0.5,5c0,0,0,0.1,0,0.1c0.2,0.5,0.7,0.6,1.1,0.2c0,0,0,0,0,0l0.9-0.9l0,0l2.1,2.1c0.1,0.1,0.3,0.1,0.5,0l2-2
		c0.1-0.1,0.1-0.3,0-0.5L17.8,13.2z"/>
	<path class="st0" d="M6.8,1.5C6.5,1,6.1,0.9,5.7,1.3l0,0L4.7,2.2l0,0L2.6,0.1C2.4,0,2.2,0,2.1,0.1l-2,2C0,2.2,0,2.4,0.1,2.6
		l2.1,2.1C1.9,5,1.6,5.3,1.3,5.6C0.7,6.2,1.1,6.7,1.9,6.8l4.6,0.5C7,7.4,7.4,7.1,7.3,6.6C7.1,4.9,7,3.3,6.8,1.5
		C6.8,1.6,6.8,1.5,6.8,1.5z"/>
</g>
</svg>
