<?xml version="1.0" encoding="utf-8"?>
<!-- Generator: Adobe Illustrator 23.0.1, SVG Export Plug-In . SVG Version: 6.00 Build 0)  -->
<svg version="1.1" id="Layer_1" xmlns="http://www.w3.org/2000/svg" xmlns:xlink="http://www.w3.org/1999/xlink" x="0px" y="0px"
	 viewBox="0 0 380.6 61.7" style="enable-background:new 0 0 380.6 61.7;" xml:space="preserve">
<style type="text/css">
	.st0{fill:#EE9C04;}
	.st1{fill:#FFFFFF;}
	.st2{fill:#DB60FE;}
	.st3{fill:none;}
</style>
<path class="st0" d="M77.8,18.9c1,0,1.8-0.3,2.4-1c0.7-0.7,1-1.5,1-2.4c0-1-0.3-1.8-1-2.4c-0.7-0.7-1.5-1-2.4-1s-1.8,0.3-2.4,1
	c-0.7,0.7-1,1.5-1,2.4c0,1,0.3,1.8,1,2.4C76,18.6,76.8,18.9,77.8,18.9z"/>
<path class="st1" d="M77.3,33.6h-2.8l3.6-8.8c0.4-1.1,0.7-1.9,0.7-2.4c0-0.6-0.3-1.2-0.8-1.7c-0.5-0.5-1.1-0.7-1.8-0.7
	c-1.7,0-2.9,0.9-3.7,2.8l-0.3,0.7l-4.1,10.1c-0.3,0.8-0.5,1.5-0.5,2.1c0,1,0.4,1.8,1.3,2.4c0.8,0.6,2,0.9,3.4,0.9h4
	c1.3,0,2.4-0.3,3.1-0.8c0.7-0.6,1.1-1.4,1.1-2.4C80.4,34.3,79.4,33.6,77.3,33.6z"/>
<path class="st1" d="M111.3,33.6h3c2.1,0,3.1,0.7,3.1,2.2c0,1-0.4,1.8-1.1,2.4c-0.7,0.6-1.8,0.8-3.1,0.8h-5c-1.1,0-2-0.3-2.7-0.9
	c-0.7-0.6-1-1.3-1-2.3c0-0.6,0.2-1.5,0.7-2.6l2.3-5.7c0.1-0.3,0.2-0.6,0.2-0.9c0-1.1-0.5-1.6-1.6-1.6c-0.8,0-1.7,0.4-2.5,1.1
	c-0.8,0.8-1.5,1.8-2,3L98.7,36c-0.9,2.2-2.2,3.3-4,3.3c-0.7,0-1.3-0.2-1.7-0.7c-0.5-0.4-0.7-1-0.7-1.6c0-0.5,0.1-1,0.4-1.7l0.3-0.7
	l2.8-6.9c0.2-0.6,0.4-1.1,0.4-1.4c0-0.4-0.2-0.7-0.5-1c-0.3-0.3-0.7-0.4-1.2-0.4c-1.8,0-3.2,1.3-4.3,3.9L87.3,36
	c-0.9,2.2-2.2,3.4-4,3.4c-0.7,0-1.3-0.2-1.8-0.7c-0.5-0.4-0.7-1-0.7-1.6c0-0.5,0.1-1.1,0.4-1.7l0.3-0.7l4.9-12.2
	c0.7-1.7,1.7-2.6,3.1-2.6c1.4,0,2.3,0.7,2.7,2c1.1-1,2-1.6,2.7-1.9c0.7-0.3,1.6-0.5,2.6-0.5c2.2,0,3.9,1,5,2.9
	c1.9-1.9,3.9-2.9,6.3-2.9c1.6,0,2.9,0.5,4,1.4c1.1,0.9,1.6,2.1,1.6,3.4c0,0.8-0.2,1.7-0.5,2.6L111.3,33.6z"/>
<path class="st1" d="M135.3,33.6h2.7c2.1,0,3.1,0.7,3.1,2.2c0,1-0.4,1.8-1.1,2.4c-0.7,0.6-1.8,0.9-3.1,0.9h-3.2
	c-1.4,0-2.4-0.6-2.9-1.7c-1.2,1.1-2.4,1.7-3.6,1.7h-2.8c-1.8,0-3.3-0.7-4.4-2c-1.1-1.3-1.7-3-1.7-5.1c0-3.2,1.1-6,3.3-8.5
	c2.2-2.5,4.7-3.8,7.4-3.8c2.1,0,3.7,0.7,4.6,2.2c0.8-1.2,1.9-1.9,3.3-1.9c0.7,0,1.3,0.2,1.8,0.7c0.5,0.5,0.7,1,0.7,1.7
	c0,0.5-0.1,1-0.4,1.7l-0.3,0.7L135.3,33.6z M126.3,33.7h0.6c1.4,0,2.3-0.6,2.7-1.7l1.7-4.3c0.2-0.6,0.3-1,0.3-1.4
	c0-0.4-0.2-0.8-0.7-1.2c-0.4-0.3-1-0.5-1.6-0.5c-1.2,0-2.4,0.7-3.5,2.1c-1.1,1.4-1.7,2.9-1.7,4.4C124.2,32.8,124.9,33.7,126.3,33.7z
	"/>
<path class="st1" d="M156.7,39.7h3c2.1,0,3.2,0.7,3.2,2.2c0,1-0.4,1.8-1.1,2.4c-0.7,0.6-1.8,0.9-3.1,0.9h-4.1l-1,2.6
	c-2.5,6.2-6.2,9.3-11.1,9.3c-2.6,0-4.7-0.8-6.4-2.4c-1.7-1.6-2.5-3.5-2.5-5.9c0-1.5,0.4-3,1.2-4.3c0.8-1.4,1.9-2.4,3.4-3.2
	c1.8-1,4.1-1.5,7.1-1.5h5.3l0.8-1.9c-1,0.6-2,0.9-3,0.9c-1.8,0-3.2-0.6-4.3-1.8c-1.1-1.2-1.7-2.8-1.7-4.8c0-3.2,1.1-6,3.4-8.6
	c2.2-2.6,4.7-3.8,7.5-3.8c2,0,3.6,0.7,4.6,2c0.8-1.3,1.9-2,3.3-2c0.7,0,1.3,0.2,1.8,0.7c0.5,0.5,0.7,1,0.7,1.7
	c0,0.5-0.2,1.3-0.6,2.4L156.7,39.7z M148.3,45.1H144c-1.5,0-2.6,0.3-3.5,0.9c-0.8,0.6-1.2,1.5-1.2,2.7c0,0.8,0.3,1.4,0.8,2
	c0.6,0.5,1.3,0.8,2.1,0.8c1.2,0,2.2-0.5,3.1-1.4C146.2,49.1,147.2,47.5,148.3,45.1z M153.5,32.2l2-4.9c0.2-0.4,0.2-0.8,0.2-1
	c0-0.5-0.2-0.9-0.7-1.2c-0.4-0.3-1-0.5-1.7-0.5c-1.2,0-2.3,0.7-3.4,2.1c-1.1,1.4-1.6,2.8-1.6,4.3c0,1.7,0.8,2.6,2.4,2.6
	C152.3,33.5,153.1,33.1,153.5,32.2z"/>
<path class="st1" d="M170.2,31.7c0,1.2,0.9,1.9,2.8,1.9h7.4c2.1,0,3.1,0.7,3.1,2.2c0,1-0.4,1.8-1.1,2.4c-0.7,0.6-1.8,0.8-3.1,0.8h-7
	c-2.6,0-4.6-0.6-6-1.9c-1.4-1.3-2.1-3.2-2.1-5.7c0-3.2,1.1-6,3.2-8.3c2.2-2.3,4.7-3.5,7.7-3.5c2.2,0,3.9,0.6,5.2,1.7
	c1.3,1.1,2,2.6,2,4.5c0,2.2-0.9,3.9-2.7,5c-1,0.6-2.5,0.9-4.5,0.9H170.2z M171.4,27.2h2.7c1.8,0,2.6-0.4,2.6-1.2
	c0-0.9-0.6-1.3-1.7-1.3C173.5,24.7,172.3,25.5,171.4,27.2z"/>
<path class="st1" d="M209.2,21c1.7-0.9,3.2-1.4,4.3-1.4c1.6,0,2.9,0.4,3.9,1.3c1,0.9,1.5,2,1.5,3.4c0,0.8-0.2,1.7-0.6,2.7l-2.6,6.5
	h2.9c2.1,0,3.1,0.7,3.1,2.2c0,1-0.4,1.8-1.1,2.4c-0.7,0.6-1.8,0.8-3.1,0.8h-5c-1.1,0-2-0.3-2.7-0.9c-0.7-0.6-1.1-1.3-1.1-2.2
	c0-0.6,0.2-1.4,0.6-2.3l2.3-5.6c0.3-0.7,0.4-1.3,0.4-1.6c0-0.9-0.6-1.4-1.9-1.4c-1.7,0-3.1,1.4-4.3,4.3l-2.8,6.8
	c-0.9,2.2-2.2,3.3-3.9,3.3c-0.7,0-1.3-0.2-1.7-0.6c-0.5-0.4-0.7-1-0.7-1.6c0-0.5,0.1-1,0.4-1.6l0.3-0.7l10.8-26.7
	c0.9-2.3,2.2-3.4,3.9-3.4c0.7,0,1.3,0.2,1.8,0.7c0.5,0.5,0.7,1,0.7,1.7c0,0.5-0.2,1.3-0.6,2.4L209.2,21z"/>
<path class="st1" d="M240.2,33.6h2.9c1.1,0,2,0.2,2.4,0.5c0.5,0.3,0.7,0.9,0.7,1.7c0,1-0.4,1.8-1.1,2.4c-0.7,0.6-1.8,0.9-3.1,0.9
	h-4.4c-1.4,0-2.3-0.5-2.8-1.6c-0.9,1.1-2.1,1.6-3.4,1.6h-3.6c-1.5,0-2.7-0.5-3.6-1.4c-1-0.9-1.4-2.1-1.4-3.5c0-0.8,0.2-1.7,0.6-2.8
	l3.4-8.3c0.9-2.3,2.2-3.5,3.9-3.5c0.7,0,1.3,0.2,1.8,0.7c0.5,0.5,0.7,1,0.7,1.7c0,0.5-0.1,1.1-0.4,1.7l-0.3,0.7l-2.6,6.4l-0.3,0.7
	c-0.1,0.4-0.2,0.8-0.2,1c0,0.7,0.4,1.1,1.4,1.1c2.1,0,3.4-0.8,4.1-2.5l3.1-7.7c0.9-2.3,2.2-3.5,3.9-3.5c0.7,0,1.3,0.2,1.8,0.7
	c0.5,0.5,0.7,1,0.7,1.7c0,0.5-0.2,1.3-0.6,2.4L240.2,33.6z"/>
<path class="st1" d="M265.6,33.6h3c2.1,0,3.2,0.7,3.2,2.2c0,1-0.4,1.8-1.1,2.4c-0.7,0.6-1.8,0.8-3.1,0.8h-5.2c-1,0-1.9-0.3-2.5-0.9
	c-0.7-0.6-1-1.4-1-2.3c0-0.6,0.2-1.4,0.7-2.5l2.2-5.4c0.2-0.6,0.4-1,0.4-1.4c0-0.4-0.1-0.7-0.5-1c-0.3-0.3-0.8-0.4-1.3-0.4
	c-1.7,0-3.1,1.3-4.1,3.9l-2.9,7.2c-0.9,2.2-2.2,3.3-3.9,3.3c-0.7,0-1.3-0.2-1.8-0.6c-0.5-0.4-0.7-1-0.7-1.6c0-0.5,0.1-1,0.4-1.7
	l0.3-0.7l5-12.4c0.6-1.6,1.7-2.4,3.3-2.4c1.3,0,2.2,0.6,2.7,1.7c1.8-1.4,3.5-2,5.1-2c1.6,0,2.8,0.4,3.9,1.3c1,0.9,1.5,2,1.5,3.4
	c0,0.8-0.2,1.6-0.5,2.5L265.6,33.6z"/>
<path class="st1" d="M285,20h0.8c2.1,0,3.2,0.7,3.2,2.2c0,1-0.4,1.8-1.1,2.4c-0.7,0.6-1.8,0.8-3.1,0.8H283l-3.3,8.2h2.8
	c2.1,0,3.2,0.7,3.2,2.2c0,1-0.4,1.8-1.1,2.4c-0.7,0.6-1.8,0.8-3.1,0.8h-4.4c-1.3,0-2.3-0.3-3-0.9c-0.7-0.6-1.1-1.4-1.1-2.4
	c0-0.6,0.1-1.3,0.4-2l0.5-1.1l2.9-7.2h-0.4c-1.9,0-2.8-0.7-2.8-2.2c0-1,0.4-1.8,1.1-2.4c0.7-0.6,1.8-0.9,3.1-0.9h1.1l1.3-3.3
	l0.3-0.7c0.8-1.8,2-2.8,3.7-2.8c0.7,0,1.3,0.2,1.8,0.7c0.5,0.5,0.7,1,0.7,1.7c0,0.6-0.2,1.4-0.6,2.4L285,20z"/>
<path class="st1" d="M293.9,31.7c0,1.2,0.9,1.9,2.8,1.9h7.4c2.1,0,3.1,0.7,3.1,2.2c0,1-0.4,1.8-1.1,2.4c-0.7,0.6-1.8,0.8-3.1,0.8h-7
	c-2.6,0-4.6-0.6-6-1.9c-1.4-1.3-2.1-3.2-2.1-5.7c0-3.2,1.1-6,3.2-8.3c2.2-2.3,4.7-3.5,7.7-3.5c2.2,0,3.9,0.6,5.2,1.7
	c1.3,1.1,2,2.6,2,4.5c0,2.2-0.9,3.9-2.7,5c-1,0.6-2.5,0.9-4.5,0.9H293.9z M295.1,27.2h2.7c1.8,0,2.6-0.4,2.6-1.2
	c0-0.9-0.6-1.3-1.7-1.3C297.2,24.7,296,25.5,295.1,27.2z"/>
<path class="st1" d="M314.4,25.4l-0.8,2.1c-0.8,1.9-1.8,2.8-3,2.8c-0.7,0-1.4-0.2-1.9-0.7c-0.5-0.4-0.7-1-0.7-1.7
	c0-0.4,0.2-1,0.5-1.9l2.8-6.9c0.7-1.7,1.6-2.5,2.9-2.5c1.2,0,2,0.6,2.3,1.7l0.2,0.8c0.1,0.4,0.2,0.6,0.4,0.7
	c0.2,0.1,0.7,0.1,1.5,0.1h5.8c2.2,0,3.3,0.8,3.3,2.3c0,2.1-1.4,3.2-4.1,3.2l-0.3,0.2c-2.6,2.5-4,4.5-4,5.8c0,1.4,0.8,2.1,2.3,2.1
	h3.1c2.1,0,3.2,0.7,3.2,2.2c0,1-0.4,1.8-1.1,2.4c-0.7,0.6-1.8,0.8-3.1,0.8h-4.9c-1.7,0-3-0.6-4.1-1.7c-1.1-1.1-1.6-2.6-1.6-4.4
	c0-1.2,0.3-2.3,0.8-3.4c0.6-1.1,1.6-2.4,3-4H314.4z"/>
<path class="st0" d="M30.9,48.1c3.4,0,6.6-1,9.3-2.7c0.5-0.3,1-0.7,1.5-1.1c0.5-0.4,0.9-0.8,1.4-1.2l0,0l0,0
	c1.3-1.3,2.4-2.8,3.3-4.5c0.2-0.3,0.3-0.7,0.5-1c0.9-2.1,1.4-4.3,1.4-6.7h0l0,0c0-1.8-0.3-3.5-0.8-5.1c-0.1-0.3-0.2-0.6-0.3-0.9
	c-0.1-0.3-0.2-0.6-0.4-0.9l0,0l0,0l0,0h0c0,0,0,0,0-0.1c-0.1-0.1-0.2-0.1-0.4,0l-2.5,2c-0.1,0.1-0.1,0.2-0.1,0.3
	c0.2,0.6,0.4,1.3,0.6,1.9c0,0.1,0.1,0.3,0.1,0.4c0.1,0.8,0.2,1.6,0.2,2.5h0l0,0h0c0,2.7-0.8,5.3-2.2,7.4c-0.3,0.4-0.6,0.8-0.9,1.2
	c-0.3,0.4-0.6,0.7-1,1.1l0,0c-1,1-2.3,1.9-3.6,2.6c-0.3,0.1-0.5,0.2-0.8,0.4c-1.6,0.7-3.5,1.1-5.4,1.1v0h0c-2.7,0-5.3-0.8-7.4-2.2
	c-0.4-0.3-0.8-0.6-1.2-0.9c-0.4-0.3-0.7-0.6-1.1-1l0,0c-1-1-1.9-2.3-2.6-3.6c-0.1-0.3-0.2-0.5-0.4-0.8c-0.7-1.6-1.1-3.5-1.1-5.3h0v0
	c0-2.7,0.8-5.3,2.2-7.4c0.3-0.4,0.6-0.8,0.9-1.2c0.3-0.4,0.6-0.7,1-1.1l0,0l0,0c1-1,2.2-1.9,3.6-2.6l0,0c0.3-0.1,0.5-0.3,0.8-0.4
	c1.6-0.7,3.5-1.1,5.3-1.1v0h0c1.7,0,3.2,0.3,4.7,0.8c0.3,0.1,0.6,0.2,0.8,0.3c0.3,0.1,0.5,0.3,0.8,0.4l0,0c0.1,0.1,0.2,0,0.3-0.1
	l1.9-2.4l0,0c0,0,0,0,0,0c0.1-0.1,0-0.3-0.1-0.3c-1.1-0.6-2.2-1.1-3.3-1.5c-0.2-0.1-0.5-0.1-0.7-0.2c-1.4-0.4-2.9-0.6-4.5-0.6v0h0
	c-3.4,0-6.6,1-9.3,2.7c-0.5,0.3-1,0.7-1.5,1.1c-0.5,0.4-0.9,0.8-1.4,1.2l0,0l0,0l0,0l0,0c-1.3,1.3-2.4,2.8-3.3,4.5
	c-0.2,0.3-0.3,0.7-0.5,1c-0.9,2.1-1.4,4.3-1.4,6.7h0v0c0,3.4,1,6.6,2.7,9.3c0.3,0.5,0.7,1,1.1,1.5c0.4,0.5,0.8,0.9,1.2,1.4l0,0l0,0
	c1.3,1.3,2.8,2.4,4.5,3.3c0.3,0.2,0.7,0.3,1,0.5C26.3,47.6,28.5,48.1,30.9,48.1L30.9,48.1L30.9,48.1z"/>
<polygon class="st2" points="31.4,26.1 31.4,26.1 31.4,26.1 "/>
<polygon class="st1" points="30.2,31 31.6,32.2 46.8,18.1 50.6,17.8 58.5,10.2 53.3,9.5 52.8,4.8 45.5,11.8 44.6,16 "/>
<path class="st0" d="M33.8,23c-0.4-0.1-0.7-0.2-1.1-0.3h0c-0.1,0-0.2,0-0.2,0c-0.5-0.1-0.9-0.1-1.4-0.1v0l0,0
	c-1.6,0-3.2,0.5-4.5,1.3c-0.3,0.2-0.5,0.3-0.7,0.5c-0.2,0.2-0.5,0.4-0.7,0.6l0,0l0,0l0,0c-0.6,0.6-1.2,1.4-1.6,2.2
	c-0.1,0.2-0.2,0.3-0.2,0.5c-0.4,1-0.7,2.1-0.7,3.2h0v0c0,1.6,0.5,3.2,1.3,4.5c0.2,0.3,0.3,0.5,0.5,0.7c0.2,0.2,0.4,0.4,0.6,0.6l0,0
	l0,0c0.6,0.6,1.4,1.2,2.2,1.6c0.2,0.1,0.3,0.2,0.5,0.2c1,0.4,2.1,0.7,3.2,0.7v0h0c1.6,0,3.2-0.5,4.5-1.3c0.3-0.2,0.5-0.3,0.7-0.5
	c0.2-0.2,0.4-0.4,0.6-0.6l0,0l0,0c0.6-0.6,1.2-1.4,1.6-2.2c0.1-0.2,0.2-0.3,0.2-0.5c0.4-1,0.7-2.1,0.7-3.2h0v0c0-0.2,0-0.4,0-0.6v0
	l0-0.1h0v0l0-0.1l0,0l0,0h0c0,0,0-0.1-0.1-0.1c-0.1-0.1-0.2-0.1-0.4,0l-3.3,2.6c0,0-0.1,0.1-0.1,0.1c-0.2,0.5-0.4,0.9-0.7,1.2
	c-0.1,0.1-0.1,0.1-0.2,0.2c-0.1,0.1-0.1,0.1-0.2,0.2l0,0l0,0c-0.4,0.4-0.8,0.7-1.2,0.9c-0.1,0-0.2,0.1-0.3,0.1
	c-0.6,0.2-1.2,0.4-1.8,0.4v0h0c-0.9,0-1.8-0.3-2.5-0.7c-0.1-0.1-0.3-0.2-0.4-0.3c-0.1-0.1-0.3-0.2-0.4-0.3l0,0l0,0
	c-0.4-0.4-0.7-0.8-0.9-1.2c0-0.1-0.1-0.2-0.1-0.3c-0.2-0.6-0.4-1.2-0.4-1.8h0v0c0-0.9,0.3-1.8,0.7-2.5c0.1-0.1,0.2-0.3,0.3-0.4
	c0.1-0.1,0.2-0.3,0.3-0.4l0,0l0,0c0.4-0.4,0.8-0.7,1.2-0.9c0.1,0,0.2-0.1,0.3-0.1c0.6-0.2,1.2-0.4,1.8-0.4v0h0c0.2,0,0.3,0,0.4,0
	c-0.1,0-0.2-0.1-0.2-0.3l0.2,0.3c0,0,0,0,0,0l0,0l0.1,0l0,0l0.1,0v0l0,0v0c0.1,0,0.2,0,0.2-0.1l2-2.6l0,0c0,0,0,0,0-0.1
	C34,23.2,33.9,23.1,33.8,23z"/>
<path class="st0" d="M54.7,19.9c-0.3-0.5-0.5-1.1-0.8-1.6h0l0,0l0,0h0c0,0,0,0,0,0c-0.1-0.1-0.2-0.1-0.4,0l-2.4,1.9
	C51,20.2,51,20.3,51,20.4c0.7,1.3,1.2,2.7,1.7,4.1c0.1,0.3,0.2,0.6,0.2,0.9c0.4,1.8,0.7,3.6,0.7,5.5h0v0c0,4.5-1.3,8.7-3.6,12.2
	c-0.4,0.7-0.9,1.3-1.4,2c-0.5,0.6-1,1.2-1.6,1.8l0,0l0,0c-1.7,1.7-3.7,3.1-5.9,4.2c-0.4,0.2-0.9,0.4-1.3,0.6
	c-2.7,1.1-5.7,1.8-8.8,1.8v0h0c-4.5,0-8.7-1.3-12.2-3.6c-0.7-0.4-1.3-0.9-2-1.4c-0.6-0.5-1.2-1-1.8-1.6l0,0l0,0
	c-1.7-1.7-3.1-3.7-4.2-5.9c-0.2-0.4-0.4-0.9-0.6-1.3c-1.1-2.7-1.8-5.7-1.8-8.8h0v0c0-4.5,1.3-8.7,3.6-12.2c0.4-0.7,0.9-1.3,1.4-2
	c0.5-0.6,1-1.2,1.6-1.8l0,0l0,0c1.7-1.7,3.7-3.1,5.9-4.2c0.4-0.2,0.9-0.4,1.3-0.6c2.7-1.1,5.7-1.8,8.8-1.8v0h0
	c3.1,0,6.1,0.6,8.8,1.8v0l0,0c0.5,0.2,1,0.5,1.5,0.7c0.5,0.3,1,0.5,1.5,0.8l0,0c0.1,0.1,0.3,0.1,0.3-0.1l1.9-2.4c0,0,0,0,0,0
	c0.1-0.1,0-0.3-0.1-0.4c-1.7-1.1-3.5-2-5.4-2.6c-0.4-0.1-0.8-0.3-1.1-0.4C36.1,5,33.6,4.7,31,4.7v0h0c-5.2,0-10.1,1.5-14.1,4.1
	c-0.8,0.5-1.6,1.1-2.3,1.6c-0.7,0.6-1.4,1.2-2.1,1.9l0,0l0,0c-2,2-3.7,4.3-4.9,6.8c-0.2,0.5-0.5,1-0.7,1.5
	c-1.3,3.1-2.1,6.6-2.1,10.2l0,0v0c0,5.2,1.5,10.1,4.1,14.1c0.5,0.8,1.1,1.6,1.6,2.3c0.6,0.7,1.2,1.4,1.9,2.1l0,0l0,0
	c2,2,4.3,3.7,6.8,4.9c0.5,0.2,1,0.5,1.5,0.7c3.1,1.3,6.6,2.1,10.2,2.1v0h0c5.2,0,10.1-1.5,14.1-4.1c0.8-0.5,1.6-1.1,2.3-1.6
	c0.7-0.6,1.4-1.2,2.1-1.9l0,0l0,0c2-2,3.7-4.3,4.9-6.8c0.2-0.5,0.5-1,0.7-1.5c1.3-3.1,2.1-6.6,2.1-10.2h0v0c0-3.3-0.6-6.4-1.7-9.4
	C55.2,21,55,20.4,54.7,19.9z"/>
<path class="st2" d="M31.4,26.1L31.4,26.1l-0.2-0.3C31.2,26,31.3,26.1,31.4,26.1z"/>
<rect x="0" y="0" class="st3" width="381" height="62"/>
</svg>
