<?xml version="1.0" encoding="utf-8"?>
<!-- Generator: Adobe Illustrator 23.0.1, SVG Export Plug-In . SVG Version: 6.00 Build 0)  -->
<svg version="1.1" id="Layer_1" xmlns="http://www.w3.org/2000/svg" xmlns:xlink="http://www.w3.org/1999/xlink" x="0px" y="0px"
	 viewBox="0 0 264.2 310.9" style="enable-background:new 0 0 264.2 310.9;" xml:space="preserve">
<style type="text/css">
	.st0{opacity:0.5;}
	.st1{fill:#FFF100;stroke:#231F20;stroke-miterlimit:10;}
	.st2{fill:#FFFFFF;stroke:#000000;}
</style>
<g class="st0">
	<path class="st1" d="M231.5,0.5H231c18,0,32.5,14.5,32.5,32.5v89.9c0,18-14.5,32.5-32.5,32.5H33c-18,0-32.5-14.5-32.5-32.5v124.9
		c0,9.3,6.1,18,15.1,21.2l116.2,41.5l116.5-41.5c9-3.5,15.1-11.9,15.4-21.5V32.7C263.7,15,249.2,0.5,231.5,0.5z M115,231.8
		c0,14.2-3.2,25.2-9.9,32.8s-15.9,11.3-28.4,11.3c-5.5,0-10.4-0.9-15.1-2.9v-21.7c4.1,2.9,8.7,4.6,13.6,4.6c11,0,16.5-8.4,16.5-25.2
		V166H115V231.8z M195.3,268.4c-7.2,5.5-17.7,8.1-31.3,8.1c-12.5,0-22.6-2-30.4-6.1l0.3-23.5c8.7,7.2,18.6,10.7,29.6,10.7
		c6.4,0,11-1.2,14.2-3.2c3.2-2,4.6-4.9,4.6-8.4c0-2.9-1.2-5.8-3.8-8.4s-9.3-6.1-20-10.7c-16.8-7.2-25.2-17.7-25.2-31.3
		c0-10.1,3.8-18,11.6-23.5c7.8-4.9,18-7.8,30.4-7.8c10.4,0,19.4,1.4,26.7,4.1v21.7c-7.2-4.9-15.7-7.2-25.5-7.2
		c-5.8,0-10.1,1.2-13.6,3.2c-3.5,2-5.2,4.9-5.2,8.4c0,2.9,1.2,5.2,3.5,7.8c2.3,2.3,8.1,5.5,17.1,9.6c10.7,4.6,18.3,9.6,22,14.5
		c4.1,5.2,6.1,11.3,6.1,18.3C206.3,255,202.6,262.9,195.3,268.4z"/>
	<path class="st1" d="M33,0.5h-0.3C15,0.5,0.5,15,0.5,32.7V33C0.5,15,15,0.5,33,0.5z"/>
	<path d="M33,155.3h198c18,0,32.5-14.5,32.5-32.5V33c0-18-14.5-32.5-32.5-32.5H33C15,0.5,0.5,15,0.5,33v89.9
		C0.5,140.8,15,155.3,33,155.3z M157,13.8h44.1v121.5H157V13.8z M70.7,13.8h43.8v121.5H70.7V13.8z"/>
	<rect x="70.7" y="13.8" class="st2" width="43.8" height="121.5"/>
	<rect x="157" y="13.8" class="st2" width="44.1" height="121.5"/>
	<path d="M91.8,230.7c0,16.8-5.5,25.2-16.5,25.2c-4.9,0-9.6-1.7-13.6-4.6V273c4.6,2,9.6,2.9,15.1,2.9c12.5,0,21.7-3.8,28.4-11.3
		s9.9-18.6,9.9-32.8V166H91.8V230.7z"/>
	<path d="M178.2,211.8c-9-4.1-14.8-7.2-17.1-9.6c-2.3-2.6-3.5-4.9-3.5-7.8c0-3.5,1.7-6.4,5.2-8.4c3.5-2,7.8-3.2,13.6-3.2
		c9.9,0,18.3,2.3,25.5,7.2v-21.7c-7.2-2.6-16.2-4.1-26.7-4.1c-12.5,0-22.6,2.9-30.4,7.8c-7.8,5.5-11.6,13.3-11.6,23.5
		c0,13.6,8.4,24.1,25.2,31.3c10.7,4.6,17.4,8.1,20,10.7s3.8,5.5,3.8,8.4c0,3.5-1.4,6.4-4.6,8.4c-3.2,2-7.8,3.2-14.2,3.2
		c-11,0-20.9-3.5-29.6-10.7l-0.3,23.5c7.8,4.1,18,6.1,30.4,6.1c13.6,0,24.1-2.6,31.3-8.1c7.2-5.5,11-13.3,11-23.8c0-7-2-13-6.1-18.3
		C196.5,221.4,188.9,216.5,178.2,211.8z"/>
</g>
</svg>
